<svg xmlns="http://www.w3.org/2000/svg" viewBox="0 0 800 500"><defs><linearGradient id="b" x2="1" y2="1"><stop stop-color="#10223b"/><stop offset=".55" stop-color="#29154c"/><stop offset="1" stop-color="#071018"/></linearGradient><radialGradient id="l"><stop stop-color="#ff6a34" stop-opacity=".9"/><stop offset="1" stop-color="#ff6a34" stop-opacity="0"/></radialGradient></defs><rect width="800" height="500" fill="url(#b)"/><circle cx="180" cy="60" r="210" fill="url(#l)"/><circle cx="650" cy="70" r="180" fill="#477cff" opacity=".24"/><path d="M0 370Q90 290 180 370T360 350T540 365T800 330V500H0Z" fill="#03070d"/><g fill="#111b2b" stroke="#79a7ff" stroke-opacity=".45"><path d="M90 370l55-210 55 210z"/><path d="M620 370l45-175 50 175z"/></g><g fill="#05080d"><circle cx="95" cy="360" r="28"/><path d="M62 500v-110q33-45 66 0v110z"/><circle cx="245" cy="370" r="26"/><path d="M214 500v-102q31-42 62 0v102z"/><circle cx="410" cy="350" r="30"/><path d="M375 500v-115q35-48 70 0v115z"/><circle cx="575" cy="370" r="27"/><path d="M542 500v-105q33-44 66 0v105z"/><circle cx="720" cy="355" r="30"/><path d="M684 500v-112q36-48 72 0v112z"/></g><g stroke="#fff" stroke-width="8" stroke-linecap="round" opacity=".7"><path d="M115 405l-35-75"/><path d="M410 405l20-90"/><path d="M700 400l35-80"/></g></svg>