<svg xmlns="http://www.w3.org/2000/svg" viewBox="0 0 800 500"><defs><linearGradient id="g" x2="1" y2="1"><stop stop-color="#11182b"/><stop offset=".45" stop-color="#40204f"/><stop offset="1" stop-color="#07151d"/></linearGradient></defs><rect width="800" height="500" fill="url(#g)"/><g opacity=".9"><circle cx="180" cy="260" r="115" fill="#ff4f91"/><circle cx="180" cy="260" r="62" fill="#111827"/><circle cx="180" cy="260" r="16" fill="#f5f5f5"/><path d="M390 110v245q0 70-72 70-55 0-55-42 0-50 68-50 20 0 33 7V110z" fill="#61d7ff"/><path d="M390 110l180-45v65l-180 45z" fill="#61d7ff"/><path d="M570 65v230q0 70-72 70-55 0-55-42 0-50 68-50 20 0 33 7V65z" fill="#ff8b45"/></g></svg>